<?xml version="1.0" encoding="utf-8"?>
<!-- Svg Vector Icons : http://www.onlinewebfonts.com/icon -->
<!DOCTYPE svg PUBLIC "-//W3C//DTD SVG 1.1//EN" "http://www.w3.org/Graphics/SVG/1.1/DTD/svg11.dtd">
<svg version="1.1" xmlns="http://www.w3.org/2000/svg" xmlns:xlink="http://www.w3.org/1999/xlink" x="0px" y="0px" viewBox="0 0 1000 1000" enable-background="new 0 0 1000 1000" xml:space="preserve">
<metadata> Svg Vector Icons : http://www.onlinewebfonts.com/icon </metadata>
<g><path d="M990,780v70c0,9.5-3.5,17.7-10.4,24.6c-6.9,6.9-15.1,10.4-24.6,10.4H45c-9.5,0-17.7-3.5-24.6-10.4S10,859.5,10,850v-70c0-9.5,3.5-17.7,10.4-24.6C27.3,748.4,35.5,745,45,745h910c9.5,0,17.7,3.5,24.6,10.4C986.6,762.3,990,770.5,990,780z M990,570v70c0,9.5-3.5,17.7-10.4,24.6c-6.9,6.9-15.1,10.4-24.6,10.4H45c-9.5,0-17.7-3.5-24.6-10.4S10,649.5,10,640v-70c0-9.5,3.5-17.7,10.4-24.6C27.3,538.4,35.5,535,45,535h910c9.5,0,17.7,3.5,24.6,10.4C986.6,552.3,990,560.5,990,570z M990,360v70c0,9.5-3.5,17.7-10.4,24.6c-6.9,6.9-15.1,10.4-24.6,10.4H45c-9.5,0-17.7-3.5-24.6-10.4C13.4,447.7,10,439.5,10,430v-70c0-9.5,3.5-17.7,10.4-24.6C27.3,328.4,35.5,325,45,325h910c9.5,0,17.7,3.5,24.6,10.4C986.6,342.3,990,350.5,990,360z M990,150v70c0,9.5-3.5,17.7-10.4,24.6c-6.9,6.9-15.1,10.4-24.6,10.4H45c-9.5,0-17.7-3.5-24.6-10.4C13.4,237.7,10,229.5,10,220v-70c0-9.5,3.5-17.7,10.4-24.6C27.3,118.4,35.5,115,45,115h910c9.5,0,17.7,3.5,24.6,10.4C986.6,132.3,990,140.5,990,150z"/></g>
</svg>