<?xml version="1.0" encoding="utf-8"?>
<!-- Svg Vector Icons : http://www.onlinewebfonts.com/icon -->
<!DOCTYPE svg PUBLIC "-//W3C//DTD SVG 1.1//EN" "http://www.w3.org/Graphics/SVG/1.1/DTD/svg11.dtd">
<svg version="1.1" xmlns="http://www.w3.org/2000/svg" xmlns:xlink="http://www.w3.org/1999/xlink" x="0px" y="0px" viewBox="0 0 1000 1000" enable-background="new 0 0 1000 1000" xml:space="preserve">
<metadata> Svg Vector Icons : http://www.onlinewebfonts.com/icon </metadata>
<g><path d="M79.5,150.2c-19.4,0-35.9-6.9-49.3-20.7C16.7,115.6,10,99,10,79.5c0-19.4,6.7-35.9,20.2-49.3C43.6,16.7,60.1,10,79.5,10h841c19.4,0,35.9,6.7,49.3,20.2C983.3,43.6,990,60.1,990,79.5c0,19.4-6.7,36.1-20.2,49.9c-13.5,13.8-29.9,20.7-49.3,20.7H79.5z M780.3,290.3c19.4,0,35.9,6.7,49.3,20.2c13.5,13.5,20.2,29.9,20.2,49.3c0,19.4-6.7,36.1-20.2,49.9c-13.5,13.8-29.9,20.7-49.3,20.7H219.7c-19.4,0-35.9-6.9-49.3-20.7c-13.5-13.8-20.2-30.5-20.2-49.9c0-19.4,6.7-35.9,20.2-49.3c13.5-13.5,29.9-20.2,49.3-20.2H780.3z M920.5,569.5c19.4,0,35.9,6.9,49.3,20.7c13.5,13.8,20.2,30.5,20.2,49.9s-6.7,35.9-20.2,49.3c-13.5,13.5-29.9,20.2-49.3,20.2h-841c-19.4,0-35.9-6.7-49.3-20.2C16.7,676,10,659.6,10,640.2s6.7-36.1,20.2-49.9c13.5-13.8,29.9-20.7,49.3-20.7H920.5z M780.3,849.8c19.4,0,35.9,6.9,49.3,20.7c13.5,13.8,20.2,30.5,20.2,49.9s-6.7,35.9-20.2,49.3c-13.5,13.5-29.9,20.2-49.3,20.2H219.7c-19.4,0-35.9-6.7-49.3-20.2c-13.5-13.5-20.2-29.9-20.2-49.3s6.7-36.1,20.2-49.9c13.5-13.8,29.9-20.7,49.3-20.7H780.3z"/></g>
</svg>