<?xml version="1.0" encoding="utf-8"?>
<!-- Svg Vector Icons : http://www.onlinewebfonts.com/icon -->
<!DOCTYPE svg PUBLIC "-//W3C//DTD SVG 1.1//EN" "http://www.w3.org/Graphics/SVG/1.1/DTD/svg11.dtd">
<svg version="1.1" xmlns="http://www.w3.org/2000/svg" xmlns:xlink="http://www.w3.org/1999/xlink" x="0px" y="0px" viewBox="0 0 1000 1000" enable-background="new 0 0 1000 1000" xml:space="preserve">
<metadata> Svg Vector Icons : http://www.onlinewebfonts.com/icon </metadata>
<g><g transform="translate(0.000000,511.000000) scale(0.100000,-0.100000)"><path d="M2693.6,3604.7c-30.6-13.4-76.6-45.9-99.5-72.7c-53.6-57.4-2494-6553.7-2494-6638c0-262.2,317.7-402,509.1-224c57.4,53.6,105.3,170.4,402,960.9c185.7,495.7,354.1,945.5,375.2,1001l36.4,99.5l1399.2-3.8l1397.3-5.7l367.5-985.7c323.5-865.2,377.1-995.3,438.3-1056.6c185.7-189.5,511.1-53.6,511.1,214.4c0,82.3-2440.4,6580.5-2494,6638C2957.7,3625.8,2810.3,3656.4,2693.6,3604.7z M3405.6,890.6l576.1-1537l-581.9-5.7c-319.6-1.9-844.1-1.9-1161.8,0l-581.9,5.7l576.1,1537c317.7,844.1,580,1535.1,585.7,1535.1S3087.9,1734.7,3405.6,890.6z"/><path d="M7044.2,3600.9c-72.7-38.3-88-112.9-42.1-199.1c88.1-158.9,878.6-1230.7,934.1-1265.2c76.6-47.9,187.6-38.3,254.6,24.9c24.9,24.9,241.2,313.9,476.6,641.2c457.5,635.5,484.3,685.2,413.4,771.4l-38.3,47.9l-974.3,3.8C7233.7,3629.6,7088.2,3625.8,7044.2,3600.9z"/><path d="M7918.9,1307.9c-30.6-13.4-76.6-45.9-99.5-72.7c-53.6-57.4-1632.7-4258.8-1632.7-4341.1c0-256.5,312-398.1,503.4-229.7c53.6,47.9,93.8,137.8,281.4,639.3l220.1,585.7h851.8h851.8l218.2-583.8c187.6-507.2,225.8-591.5,281.3-641.2C9588-3504.1,9900-3364.4,9900-3106c0,82.3-1579.1,4283.7-1632.7,4341.1C8183.1,1328.9,8035.7,1359.5,7918.9,1307.9z M8347.7-659.8c162.7-434.5,298.6-802,304.3-813.5c5.7-19.1-122.5-24.9-606.8-24.9c-338.8,0-614.4,5.7-614.4,13.4c0,26.8,601,1613.6,612.5,1613.6C8049.1,128.8,8185-227.2,8347.7-659.8z"/></g></g>
</svg>