<?xml version="1.0" encoding="utf-8"?>
<!-- Svg Vector Icons : http://www.onlinewebfonts.com/icon -->
<!DOCTYPE svg PUBLIC "-//W3C//DTD SVG 1.1//EN" "http://www.w3.org/Graphics/SVG/1.1/DTD/svg11.dtd">
<svg version="1.1" xmlns="http://www.w3.org/2000/svg" xmlns:xlink="http://www.w3.org/1999/xlink" x="0px" y="0px" viewBox="0 0 1000 1000" enable-background="new 0 0 1000 1000" xml:space="preserve">
<metadata> Svg Vector Icons : http://www.onlinewebfonts.com/icon </metadata>
<g><g transform="translate(0.000000,511.000000) scale(0.100000,-0.100000)"><path d="M1849.5,3597c-55.5-36.4-846-1108.3-934.1-1267.1c-47.9-88-30.6-160.8,45.9-201c49.8-26.8,181.8-28.7,1022.1-24.9c916.8,5.7,966.6,7.7,1004.9,42.1c76.6,68.9,55.5,141.6-114.8,379C2291.6,3332.9,2146.1,3532,2104,3570.2C2037,3633.4,1926,3643,1849.5,3597z"/><path d="M7057.6,3604.7c-30.6-13.4-76.6-45.9-99.5-72.7c-53.6-57.4-2494-6553.7-2494-6638c0-268,325.4-403.9,511.1-214.4c61.3,61.2,114.8,191.4,438.3,1056.6l367.5,985.7l1397.3,5.8l1399.2,3.8l36.4-99.5c21.1-55.5,189.5-505.3,375.2-1001.1c296.7-790.5,344.5-907.3,402-960.8c191.4-178,509.1-38.3,509.1,223.9c0,82.3-2442.3,6582.5-2494,6639.9C7321.8,3625.8,7172.5,3656.4,7057.6,3604.7z M7767.7,890.5l576.1-1537l-581.9-5.7c-317.7-1.9-842.2-1.9-1161.8,0l-581.9,5.7l576.1,1537c315.8,844.1,580,1535.1,585.7,1535.1C7185.9,2425.6,7450,1734.7,7767.7,890.5z"/><path d="M1832.2,1307.8c-30.6-13.4-76.6-45.9-99.5-72.7C1679.1,1177.7,100-3023.7,100-3106c0-258.4,312-398.1,505.3-229.7c55.5,49.8,93.8,134,281.4,641.2l218.2,583.8h851.8h851.8l220.1-585.7c187.6-499.6,227.8-593.4,281.4-639.3c191.4-168.4,503.4-26.8,503.4,229.7c0,82.3-1579.1,4283.7-1632.7,4341.1C2096.4,1328.9,1949,1359.5,1832.2,1307.8z M2262.9-657.9c162.7-434.5,298.6-800.1,302.4-813.5c5.7-23-101.4-26.8-608.7-26.8c-484.3,0-614.4,5.8-608.7,24.9c78.5,222,601,1602.1,608.7,1602.1C1962.4,128.8,2100.2-225.4,2262.9-657.9z"/></g></g>
</svg>