<?xml version="1.0" encoding="utf-8"?>
<!-- Svg Vector Icons : http://www.onlinewebfonts.com/icon -->
<!DOCTYPE svg PUBLIC "-//W3C//DTD SVG 1.1//EN" "http://www.w3.org/Graphics/SVG/1.1/DTD/svg11.dtd">
<svg version="1.1" xmlns="http://www.w3.org/2000/svg" xmlns:xlink="http://www.w3.org/1999/xlink" x="0px" y="0px" viewBox="0 0 1000 1000" enable-background="new 0 0 1000 1000" xml:space="preserve">
<metadata> Svg Vector Icons : http://www.onlinewebfonts.com/icon </metadata>
<g><g><g><path d="M969.3,80.7h-681c-11.5,0-20.7,9.3-20.7,20.7v111.6c0,11.5,9.3,20.7,20.7,20.7h681c11.5,0,20.7-9.3,20.7-20.7V101.5C990,90,980.7,80.7,969.3,80.7z"/><path d="M969.3,429.6h-681c-11.5,0-20.7,9.3-20.7,20.7V562c0,11.5,9.3,20.7,20.7,20.7h681c11.5,0,20.7-9.3,20.7-20.7V450.4C990,438.9,980.7,429.6,969.3,429.6z"/><path d="M969.3,789.1h-681c-11.5,0-20.7,9.3-20.7,20.7v111.6c0,11.5,9.3,20.7,20.7,20.7h681c11.5,0,20.7-9.3,20.7-20.7V809.8C990,798.4,980.7,789.1,969.3,789.1z"/><path d="M29.1,125.2c4.4,0.5,8.8-0.8,12.1-3.7l9.5-8.3v134.6c0,8.6,7,15.6,15.6,15.6h16c8.6,0,15.6-7,15.6-15.6v-180c0-8.6-7-15.6-15.6-15.6H65.8c-3.7,0-7.3,1.3-10.1,3.7L15.5,90.2c-6.1,5.2-7.3,14.2-2.7,20.8l5.4,7.7C20.8,122.3,24.7,124.6,29.1,125.2z"/><path d="M36.4,399c-6.7,2.4-10.9,9-10.3,16.1l1,10.4c0.5,5.2,3.5,9.7,8.1,12.2c4.5,2.5,10,2.5,14.6,0.1c12.2-6.4,20-8,30.3-5.5c7.4,1.7,12.3,6.1,14.9,12.7c3.9,11.9,4.1,30.7-29.6,71.3l-26,31.1c-6.1,7.2-10.3,11.6-13.5,14.6s-5.1,7.1-5.1,11.5v15.3c0,8.6,7,15.6,15.6,15.6h94.7c8.6,0,15.6-7,15.6-15.6v-8.1c0-8.6-7-15.6-15.6-15.6H81.5c4.8-5.3,10.8-12.6,17.8-21.4c29.1-36,52.5-68.9,44.5-107.6c-3.2-17.3-12.9-30.8-28.3-38.9c-8.6-4.4-19.5-6.6-32.4-6.6C68.4,390.5,51.8,393.5,36.4,399z"/><path d="M118.8,834.8c2.6-1.4,5-3,7.7-5c17.8-13.6,18.7-34.6,18.5-40.3c0-19.5-7.4-34.4-22.5-45.7c-10.6-8-26.3-12.2-45.2-12.2c-14,0-28.9,2.2-42.1,6.2c-6.9,2.1-11.5,8.7-11,15.9l0.6,9.1c0.3,4.9,2.9,9.3,7,12c4.1,2.7,9.2,3.3,13.8,1.7c9-3.2,16.3-4.7,23.1-4.7c2.4,0,4.7,0.2,7.5,0.7c9.7,1.3,16.2,5.7,19.7,13.3c2.5,5.4,2,15-0.9,19.5c-6.8,10.5-25.3,12.6-35.7,13c-8.4,0.2-15.1,7.1-15.1,15.5v6.8c0,8.6,7.1,15.6,15.7,15.6c16.3,0,24,3.2,26.9,5c7.6,4.8,11.1,10.8,11.1,19.9c0.3,9.5-3.6,16.7-11.7,22c-10.5,6.7-27.4,6.7-46.7,0.3c-4.5-1.5-9.5-0.9-13.5,1.8c-4,2.6-6.5,7-6.9,11.7l-0.7,9c-0.5,6.8,3.5,13.2,9.8,15.7c3.4,1.3,5.7,1.9,10.6,2.9c8.9,2,19.1,3.1,29.5,3.1c15.5,0,44.1-2.6,61.7-19.9c17.2-17.5,20.5-42.6,16.2-59.4C141.1,847.1,128.9,839.2,118.8,834.8z"/></g></g><g></g><g></g><g></g><g></g><g></g><g></g><g></g><g></g><g></g><g></g><g></g><g></g><g></g><g></g><g></g></g>
</svg>