<?xml version="1.0" encoding="utf-8"?>
<!-- Svg Vector Icons : http://www.onlinewebfonts.com/icon -->
<!DOCTYPE svg PUBLIC "-//W3C//DTD SVG 1.1//EN" "http://www.w3.org/Graphics/SVG/1.1/DTD/svg11.dtd">
<svg version="1.1" xmlns="http://www.w3.org/2000/svg" xmlns:xlink="http://www.w3.org/1999/xlink" x="0px" y="0px" viewBox="0 0 1000 1000" enable-background="new 0 0 1000 1000" xml:space="preserve">
<metadata> Svg Vector Icons : http://www.onlinewebfonts.com/icon </metadata>
<g><path d="M651.1,468.3c-12.1-19.7-19-45.6-19.7-68.9c-2.3-79.2-0.9-158.6-0.7-237.9c0.1-45.8-11.2-87.5-47.5-117.4c-41.1-33.8-87-44.8-137.9-22.3c-54.1,23.9-82.4,67.1-84.2,124.7c-2.6,88.7-0.2,177.6-1.4,266.3c-0.2,15.6-4.6,33.1-12.7,46.2c-64.8,104.3-130.6,207.9-196.8,311.3c-43.5,68-41.6,79.9,24.8,127.8c2.9,2.1,6,3.8,9,5.6c173.8,103.8,355.6,109.2,542.2,42.3c61.6-22.1,116.3-56.2,153.1-115C802.9,710.1,725.8,589.9,651.1,468.3z M402.4,224.2c0.1,0,0.1,0,0.2,0c0-27.2-0.7-54.5,0.1-81.7c1.6-52.5,38.5-89.1,89.5-89.8c54.9-0.7,94,33.2,95.8,86.8c1.9,55.6,2.2,111.3-0.4,166.8c-0.6,12.3-15.9,31.9-25.6,34c-28.7,6.1-86.4,10.4-129,2c-20.7-4.1-31.8-16.9-30.7-40C403.3,276.3,402.4,250.2,402.4,224.2z M403.9,387.8c2.8-8.5,22.9-19.9,34.5-16.1c31.1,10,86.1,2.5,108.2-0.2c18.5-2.2,37-7,40.2,18.8c3,23.9,10.4,52.3-24.4,60.5c-21.5,5.1-43.9,6.7-62.3,9.4c-20.3-2-36.8-2.7-52.9-5.3C406.1,448.4,391,427.1,403.9,387.8z M799.7,859.5c-12,7.4-23,16.4-35,23.8c-57.7,35-60.3,34.6-108.1-13.8c7.9,27.8,4.5,58.6-36,65.4c-42.6,7.2-107.6,26.4-123.9-35.5c-9.6,46-47.1,56.3-106.3,35.4c-9.2-3.2-18.2-25-21.3-35.4c-5.4-18.3-1.3-80.9-1.3-106.3c-10.4,37.3-28.4,64.1-48.3,92.2c-15.3,21.5-48.5,25.7-71.6,9.7c-1-0.7-2.1-1.1-3.1-1.6c-87.8-43.5-91.2-54.6-40.4-134.9c54.9-86.7,110.3-173.1,164.5-260.3c13.6-21.8,27.2-32.2,54.3-22.7c47.9,16.7,97.2,15.4,145.5,0.3c23.9-7.4,38.8-1.7,52.5,20.3c62.2,100.2,125.2,200,189.6,298.7C828.8,822.6,827.8,842,799.7,859.5z"/></g>
</svg>