<?xml version="1.0" encoding="iso-8859-1"?>
<!-- Generator: Adobe Illustrator 19.0.0, SVG Export Plug-In . SVG Version: 6.00 Build 0)  -->
<svg version="1.1" id="Layer_1" xmlns="http://www.w3.org/2000/svg" xmlns:xlink="http://www.w3.org/1999/xlink" x="0px" y="0px"
	 viewBox="0 0 512 512" style="enable-background:new 0 0 512 512;" xml:space="preserve">
<g>
	<g>
		<path d="M384,0H21.333c-5.891,0-10.667,4.776-10.667,10.667v74.667C10.667,91.224,15.442,96,21.333,96
			C27.224,96,32,91.224,32,85.333v-64h160V448h-53.333c-5.891,0-10.667,4.776-10.667,10.667s4.776,10.667,10.667,10.667h128
			c5.891,0,10.667-4.776,10.667-10.667S272.558,448,266.667,448h-53.333V21.333h160v64C373.333,91.224,378.109,96,384,96
			s10.667-4.776,10.667-10.667V10.667C394.667,4.776,389.891,0,384,0z"/>
	</g>
</g>
<g>
	<g>
		<path d="M490.667,490.667H480v-64c0-5.891-4.776-10.667-10.667-10.667H448c-5.891,0-10.667,4.776-10.667,10.667
			s4.776,10.667,10.667,10.667h10.667v53.333H448c-5.891,0-10.667,4.776-10.667,10.667S442.109,512,448,512h42.667
			c5.891,0,10.667-4.776,10.667-10.667S496.558,490.667,490.667,490.667z"/>
	</g>
</g>
<g>
</g>
<g>
</g>
<g>
</g>
<g>
</g>
<g>
</g>
<g>
</g>
<g>
</g>
<g>
</g>
<g>
</g>
<g>
</g>
<g>
</g>
<g>
</g>
<g>
</g>
<g>
</g>
<g>
</g>
</svg>
