<?xml version="1.0" encoding="iso-8859-1"?>
<!-- Generator: Adobe Illustrator 19.0.0, SVG Export Plug-In . SVG Version: 6.00 Build 0)  -->
<svg version="1.1" id="Layer_1" xmlns="http://www.w3.org/2000/svg" xmlns:xlink="http://www.w3.org/1999/xlink" x="0px" y="0px"
	 viewBox="0 0 512 512" style="enable-background:new 0 0 512 512;" xml:space="preserve">
<g>
	<g>
		<g>
			<path d="M501.333,490.667H10.667C4.776,490.667,0,495.442,0,501.333S4.776,512,10.667,512h490.667
				c5.891,0,10.667-4.776,10.667-10.667S507.224,490.667,501.333,490.667z"/>
			<path d="M32,21.333h53.333v234.219c0,94.315,76.565,171.115,170.667,171.115s170.667-76.8,170.667-171.115V21.333H480
				c5.891,0,10.667-4.776,10.667-10.667C490.667,4.776,485.891,0,480,0H352c-5.891,0-10.667,4.776-10.667,10.667
				c0,5.891,4.776,10.667,10.667,10.667h53.333v234.219c0,82.581-66.987,149.781-149.333,149.781s-149.333-67.2-149.333-149.781
				V21.333H160c5.891,0,10.667-4.776,10.667-10.667C170.667,4.776,165.891,0,160,0H32c-5.891,0-10.667,4.776-10.667,10.667
				C21.333,16.558,26.109,21.333,32,21.333z"/>
		</g>
	</g>
</g>
<g>
</g>
<g>
</g>
<g>
</g>
<g>
</g>
<g>
</g>
<g>
</g>
<g>
</g>
<g>
</g>
<g>
</g>
<g>
</g>
<g>
</g>
<g>
</g>
<g>
</g>
<g>
</g>
<g>
</g>
</svg>
